<svg xmlns="http://www.w3.org/2000/svg" width="100" height="84" viewBox="0 0 100 84">
    <defs>
        <linearGradient id="linear-gradient" x1=".5" x2=".5" y2=".844" gradientUnits="objectBoundingBox">
            <stop offset="0" stop-color="#e6ebf2"/>
            <stop offset="1" stop-color="#d2d9e6"/>
        </linearGradient>
        <clipPath id="clip-path">
            <path id="Прямоугольник_6397" fill="#fff" stroke="#707070" d="M0 0H100V84H0z" transform="translate(9 14.418)"/>
        </clipPath>
        <style>
            .cls-4{fill:#ffbd36}.cls-5{fill:#febd36}.cls-7{fill:#545c66}
        </style>
    </defs>
    <g id="Группа_масок_160" clip-path="url(#clip-path)" transform="translate(-9 -14.418)">
        <g id="Сгруппировать_17063" transform="translate(2.632 3.178)">
            <g id="Сгруппировать_10534" transform="translate(32 19.971)">
                <path id="Контур_22921" fill="#ffeab4" stroke="#fff" d="M47.893 148.716V171.2a4.23 4.23 0 0 1-4.218 4.216H28.216A4.229 4.229 0 0 1 24 171.2v-22.484a4.229 4.229 0 0 1 4.216-4.216h15.46a4.229 4.229 0 0 1 4.217 4.216zm0 0" transform="translate(-19.784 -119.201)"/>
                <path id="Контур_22922" d="M68.7 164.933a.7.7 0 0 1-.7-.7V157.2a.7.7 0 0 1 1.405 0v7.027a.7.7 0 0 1-.705.706zm0 0" class="cls-4" transform="translate(-56.053 -129.094)"/>
                <path id="Контур_22923" d="M108.7 164.933a.7.7 0 0 1-.7-.7V157.2a.7.7 0 0 1 1.405 0v7.027a.7.7 0 0 1-.705.706zm0 0" class="cls-4" transform="translate(-89.026 -129.094)"/>
                <path id="Контур_22927" d="M77.136 200.716a.7.7 0 0 1-.7-.7v-1.405a.7.7 0 0 0-.7-.7H68.7a.7.7 0 1 1 0-1.405h7.03a2.111 2.111 0 0 1 2.108 2.108v1.405a.7.7 0 0 1-.702.697zm0 0" class="cls-4" transform="translate(-56.053 -162.066)"/>
                <path id="Контур_22928" d="M119.514 213.905H116.7a.7.7 0 1 1 0-1.405h2.811a.7.7 0 0 1 0 1.405zm0 0" class="cls-4" transform="translate(-95.62 -175.256)"/>
                <path id="Контур_22930" d="M132.7 207.317a.7.7 0 0 1-.5-1.2l1.405-1.405a.7.7 0 0 1 .994.994l-1.405 1.405a.7.7 0 0 1-.494.206zm0 0" class="cls-4" transform="translate(-108.809 -168.666)"/>
                <path id="Контур_22932" d="M47.514 213.905H44.7a.7.7 0 1 1 0-1.405h2.811a.7.7 0 1 1 0 1.405zm0 0" class="cls-5" transform="translate(-36.27 -175.256)"/>
                <path id="Контур_22934" d="M38.107 207.317a.705.705 0 0 1-.5-.205l-1.407-1.406a.7.7 0 0 1 .994-.994l1.405 1.405a.7.7 0 0 1-.5 1.2zm0 0" class="cls-5" transform="translate(-29.675 -168.666)"/>
                <g id="Сгруппировать_10530" transform="translate(6.324 42.867)">
                    <path id="Контур_22924" d="M68.7 275.527a.7.7 0 0 1-.7-.7V269.2a.7.7 0 0 1 1.405 0v5.622a.7.7 0 0 1-.705.705zm0 0" class="cls-5" transform="translate(-62.377 -264.284)"/>
                    <path id="Контур_22925" d="M108.7 275.527a.7.7 0 0 1-.7-.7V269.2a.7.7 0 0 1 1.405 0v5.622a.7.7 0 0 1-.705.705zm0 0" class="cls-5" transform="translate(-95.35 -264.284)"/>
                    <path id="Контур_22926" d="M69.136 248.716h-7.028A2.111 2.111 0 0 1 60 246.608a.7.7 0 1 1 1.405 0 .7.7 0 0 0 .7.7h7.027a.7.7 0 0 0 .7-.7V245.2a.7.7 0 0 1 1.405 0v1.405a2.111 2.111 0 0 1-2.101 2.111zm0 0" class="cls-5" transform="translate(-55.783 -244.5)"/>
                    <path id="Контур_22929" d="M119.514 245.905H116.7a.7.7 0 1 1 0-1.405h2.811a.7.7 0 0 1 0 1.405zm0 0" class="cls-5" transform="translate(-101.944 -244.5)"/>
                    <path id="Контур_22931" d="M134.107 247.317a.705.705 0 0 1-.5-.205l-1.405-1.405a.7.7 0 0 1 .994-.994l1.405 1.405a.7.7 0 0 1-.5 1.2zm0 0" class="cls-5" transform="translate(-115.133 -244.506)"/>
                    <path id="Контур_22933" d="M47.514 245.905H44.7a.7.7 0 1 1 0-1.405h2.811a.7.7 0 1 1 0 1.405zm0 0" class="cls-5" transform="translate(-42.594 -244.5)"/>
                    <path id="Контур_22935" d="M36.7 247.317a.7.7 0 0 1-.5-1.2l1.405-1.405a.7.7 0 0 1 .994.994l-1.399 1.405a.7.7 0 0 1-.5.206zm0 0" class="cls-5" transform="translate(-35.999 -244.506)"/>
                </g>
                <path id="Контур_22936" fill="#f6bb42" d="M60.7 247.311a.7.7 0 0 1-.7-.7V245.2a.7.7 0 0 1 1.405 0v1.405a.7.7 0 0 1-.705.706zm0 0" transform="translate(-49.459 -201.633)"/>
                <path id="Контур_22967" d="M24.7 43.721a.7.7 0 0 1-.7-.7V29.2a.7.7 0 0 1 1.405 0v13.819a.7.7 0 0 1-.705.702zm0 0" class="cls-7" transform="translate(-19.784 -23.581)"/>
                <path id="Контур_22968" d="M48.7 43.721a.7.7 0 0 1-.7-.7V29.2a.7.7 0 0 1 1.405 0v13.819a.7.7 0 0 1-.705.702zm0 0" class="cls-7" transform="translate(-39.567 -23.581)"/>
                <path id="Контур_22969" d="M72.7 76.694a.7.7 0 0 1-.7-.7V69.2a.7.7 0 0 1 1.405 0v6.789a.7.7 0 0 1-.705.705zm0 0" class="cls-7" transform="translate(-59.351 -56.553)"/>
                <path id="Контур_22970" fill="url(#linear-gradient)" d="M37.245 13.149a.7.7 0 0 1 .7-.7v-1.408a.7.7 0 0 1 0-1.405V6.122L32.326.5H1.405A1.41 1.41 0 0 0 0 1.905v60.436a1.41 1.41 0 0 0 1.405 1.405h35.137a1.41 1.41 0 0 0 1.405-1.405V13.852a.7.7 0 0 1-.702-.703zM28.109 52.5a4.23 4.23 0 0 1-4.218 4.216H8.433A4.229 4.229 0 0 1 4.216 52.5V30.015A4.229 4.229 0 0 1 8.433 25.8h15.46a4.229 4.229 0 0 1 4.216 4.216zm0 0" transform="translate(0 -0.5)"/>
            </g>
        </g>
        <g id="Сгруппировать_10539" transform="translate(58.436 63.063)">
            <path id="Многоугольник_24" fill="#c92636" d="M13.991 6.417a4 4 0 0 1 7.019 0l10.753 19.664A4 4 0 0 1 28.253 32H6.747a4 4 0 0 1-3.509-5.919z" transform="translate(-3.436 -6.645)"/>
            <path id="Permissions" fill="#fff2f2" d="M7.106 14.519H5.2l-.27-8h2.446zm-.952 1.253a1.285 1.285 0 0 1 .932.341 1.245 1.245 0 0 1 0 1.737 1.285 1.285 0 0 1-.932.341 1.274 1.274 0 0 1-.924-.341 1.151 1.151 0 0 1-.353-.865 1.164 1.164 0 0 1 .353-.869 1.266 1.266 0 0 1 .924-.343z" transform="translate(7.67 1.359)"/>
        </g>
    </g>
</svg>
