<svg xmlns="http://www.w3.org/2000/svg" width="314" height="165" viewBox="0 0 314 165">
    <defs>
        <linearGradient id="linear-gradient" x1=".5" x2=".5" y1="-.089" y2=".5" gradientUnits="objectBoundingBox">
            <stop offset="0" stop-color="#fff" stop-opacity=".02"/>
            <stop offset="1" stop-color="#fff"/>
        </linearGradient>
        <clipPath id="clip-path">
            <path id="Прямоугольник_6397" fill="#fff" stroke="#707070" d="M0 0H161V165H0z" data-name="Прямоугольник 6397" transform="translate(-.333 .25)"/>
        </clipPath>
        <style>
            .cls-2{fill:#fff}.cls-5{fill:#e6ebf2}.cls-9{fill:#20a96e}.cls-11{fill:#242424}
        </style>
    </defs>
    <g id="Сгруппировать_13165" data-name="Сгруппировать 13165" transform="translate(.25 -.25)">
        <path id="Прямоугольник_6396" d="M0 0H314V165H0z" class="cls-2" data-name="Прямоугольник 6396" transform="translate(-.25 .25)"/>
        <g id="Группа_масок_160" clip-path="url(#clip-path)" data-name="Группа масок 160" transform="translate(77.083)">
            <path id="Контур_22837" fill="#ffe36c" d="M208.23 191.7a4.436 4.436 0 0 1 .467 1.993 3.778 3.778 0 0 1-3.5 4h-29.14a4.033 4.033 0 0 1-4.057-4 3.957 3.957 0 0 1 .541-1.993l15.644-26.7a4.085 4.085 0 0 1 3.515-2h.116a3.477 3.477 0 0 1 2.917 2z" data-name="Контур 22837" transform="translate(-82.417 -80.708)"/>
            <g id="Сгруппировать_10369" data-name="Сгруппировать 10369" transform="translate(-4.167 2.468)">
                <g id="Сгруппировать_10352" data-name="Сгруппировать 10352" transform="translate(19.523)">
                    <g id="smartphone-4">
                        <path id="Контур_22771" d="M120.631 240.623H16.126A14.129 14.129 0 0 1 2 226.5V14.126A14.129 14.129 0 0 1 16.126 0h104.5a14.13 14.13 0 0 1 14.13 14.126v212.366a14.13 14.13 0 0 1-14.125 14.131z" class="cls-5" data-name="Контур 22771" transform="translate(-2)"/>
                        <path id="Контур_22774" d="M0 0h127.262v174.433H0z" class="cls-2" data-name="Контур 22774" transform="translate(2.522 25.219)"/>
                        <circle id="Эллипс_511" cx="10.42" cy="10.42" r="10.42" class="cls-5" data-name="Эллипс 511" transform="translate(57.074 210.322)"/>
                        <g id="Сгруппировать_10258" data-name="Сгруппировать 10258" transform="translate(55.145 15.292)">
                            <path id="Контур_22775" fill="none" stroke="#d6d9de" stroke-linecap="round" stroke-width="3px" d="M-1512.4 11107.276h23.224" data-name="Контур 22775" transform="translate(1512.4 -11107.276)"/>
                        </g>
                        <circle id="Эллипс_513" cx="3.839" cy="3.839" r="3.839" class="cls-2" data-name="Эллипс 513" transform="translate(41.718 10.695)"/>
                    </g>
                </g>
                <path id="Прямоугольник_6387" fill="url(#linear-gradient)" d="M0 0H169V35H0z" data-name="Прямоугольник 6387" transform="translate(-.167 127.782)"/>
            </g>
        </g>
        <g id="password" transform="translate(121.875 71.859)">
            <path id="Контур_22899" fill="#e3fdf2" d="M73.982 175.375H12.9a4.886 4.886 0 0 1-4.886-4.886v-12.217a4.886 4.886 0 0 1 4.886-4.886h61.08a4.886 4.886 0 0 1 4.886 4.886v12.216a4.886 4.886 0 0 1-4.884 4.887z" data-name="Контур 22899" transform="translate(-8.016 -153.386)"/>
            <path id="Контур_22906" d="M177.653 191.141a1.145 1.145 0 0 0-1.564-.419l-2.514 1.451v-2.9a1.145 1.145 0 1 0-2.291 0v2.9l-2.514-1.451a1.145 1.145 0 0 0-1.145 1.984l2.514 1.451-2.514 1.451a1.145 1.145 0 1 0 1.145 1.984l2.514-1.451v2.9a1.145 1.145 0 1 0 2.291 0v-2.9l2.514 1.451a1.145 1.145 0 0 0 1.145-1.984l-2.514-1.451 2.514-1.451a1.145 1.145 0 0 0 .419-1.565z" class="cls-9" data-name="Контур 22906" transform="translate(-144.333 -183.162)"/>
            <path id="Контур_22907" d="M75.039 191.141a1.145 1.145 0 0 0-1.564-.419l-2.514 1.451v-2.9a1.145 1.145 0 1 0-2.291 0v2.9l-2.514-1.451a1.145 1.145 0 0 0-1.145 1.984l2.514 1.451-2.514 1.451a1.145 1.145 0 1 0 1.145 1.984l2.514-1.451v2.9a1.145 1.145 0 1 0 2.291 0v-2.9l2.514 1.451a1.145 1.145 0 0 0 1.145-1.984l-2.514-1.451 2.514-1.451a1.145 1.145 0 0 0 .419-1.565z" class="cls-9" data-name="Контур 22907" transform="translate(-56.378 -183.162)"/>
            <path id="Контур_22908" d="M280.267 191.141a1.145 1.145 0 0 0-1.564-.419l-2.514 1.451v-2.9a1.145 1.145 0 1 0-2.291 0v2.9l-2.514-1.451a1.145 1.145 0 0 0-1.145 1.984l2.514 1.451-2.514 1.451a1.145 1.145 0 1 0 1.145 1.984l2.514-1.451v2.9a1.145 1.145 0 1 0 2.291 0v-2.9l2.514 1.451a1.145 1.145 0 1 0 1.145-1.984l-2.514-1.451 2.514-1.451a1.145 1.145 0 0 0 .419-1.565z" class="cls-9" data-name="Контур 22908" transform="translate(-232.288 -183.162)"/>
            <path id="Контур_22900" fill="#c5f2df" d="M368.672 170.7a8.758 8.758 0 1 0-17.515.133v2.458a4.373 4.373 0 0 0-1.095 2.883v3.284a9.875 9.875 0 0 0 .065 1.095h15.261a4.379 4.379 0 0 0 4.379-4.379 4.373 4.373 0 0 0-1.095-2.883z" data-name="Контур 22900" transform="translate(-298.983 -158.76)"/>
        </g>
        <g id="Сгруппировать_11544" data-name="Сгруппировать 11544" transform="translate(174.794 78.018)">
            <path id="Контур_22915" d="M386.418 176.552a6.839 6.839 0 0 0-6.832 6.832v4.555h2.277v-4.555a4.555 4.555 0 0 1 9.109 0v4.555h2.277v-4.555a6.839 6.839 0 0 0-6.831-6.832z" class="cls-11" data-name="Контур 22915" transform="translate(-378.447 -176.552)"/>
            <path id="Контур_22916" d="M378.73 269.664a7.971 7.971 0 0 0 7.971-7.97v-3.416a2.277 2.277 0 0 0-2.278-2.278h-11.387a2.277 2.277 0 0 0-2.277 2.277v3.416a7.97 7.97 0 0 0 7.971 7.971z" class="cls-9" data-name="Контур 22916" transform="translate(-370.759 -245.752)"/>
            <path id="Контур_22917" d="M422.727 288.6a1.708 1.708 0 1 0-2.847 1.265v1.4a1.139 1.139 0 0 0 2.277 0v-1.4a1.7 1.7 0 0 0 .57-1.265z" class="cls-11" data-name="Контур 22917" transform="translate(-413.048 -272.664)"/>
        </g>
    </g>
</svg>
