<svg
  width="114"
  height="38"
  viewBox="0 0 114 38"
  fill="none"
  xmlns="http://www.w3.org/2000/svg"
>
<path
    d="M27.8952 38L0.941521 37.9401C0.440862 37.9401 0.034668 37.5301 0.034668 37.0287L0.0944935 10.0345C0.107089 4.50326 4.63506 -0.0125877 10.158 2.6362e-05L27.9771 0.0410237C33.5001 0.0536378 38.0092 4.5884 37.9966 10.1197L37.9556 27.9655C37.9462 33.4967 33.4182 38.0126 27.8952 38Z"
    fill="#5BDDD0"
  />
<path
    d="M28.5303 9.53271L9.57764 9.49023L9.56703 14.2363L28.5196 14.2788L28.5303 9.53271Z"
    fill="white"
  />
<path
    d="M19.6327 14.2175L18.4487 14.2148L18.438 18.9609L19.622 18.9636L19.6327 14.2175Z"
    fill="white"
  />
<path
    d="M14.2509 37.9684C14.2509 37.9684 13.3031 18.9842 28.5181 14.276L19.0434 14.2539C19.0434 14.2539 9.55292 20.274 9.51514 37.9589L14.2509 37.9684Z"
    fill="white"
  />
<path
    d="M5.9832 14.1465L3.59326 14.1411L3.57185 23.7121L5.96179 23.7174L5.9832 14.1465Z"
    fill="white"
  />
<path
    d="M9.55666 20.1382L9.56201 17.7446L0.00540886 17.7232L5.47189e-05 20.1167L9.55666 20.1382Z"
    fill="white"
  />
<path
    d="M50.3159 16.84L47.6803 16.8337L47.6646 23.8566L44.6638 23.8503L44.6795 16.8274L42.0503 16.8211L42.0566 14.5947L50.3253 14.6136L50.3159 16.84Z"
    fill="#1F2A31"
  />
<path
    d="M60.1245 20.9617C59.8411 22.8727 58.1345 24.0994 55.7162 24.0931C52.7752 24.0868 51.0214 22.2736 51.0308 19.284C51.0371 16.2945 52.813 14.3961 55.6375 14.4024C58.4179 14.4087 60.1938 16.2377 60.1875 19.0664L60.1844 19.9147L53.9434 19.9021V20.0882C53.9403 21.1919 54.6771 21.9582 55.7697 21.9614C56.5664 21.9645 57.1961 21.5829 57.4071 20.9554L60.1245 20.9617ZM53.9907 18.1897L57.3473 18.196C57.3001 17.2121 56.6388 16.5468 55.6816 16.5436C54.759 16.5436 54.0694 17.2311 53.9907 18.1897Z"
    fill="#1F2A31"
  />
<path
    d="M61.594 24.0048C61.1437 24.0048 60.8068 23.9259 60.6714 23.8849L60.6777 21.3968C60.7879 21.422 60.9926 21.4567 61.2539 21.4567C62.1198 21.4599 62.3497 20.3814 62.4127 19.0569L62.6331 14.642L70.1115 14.6577L70.0894 23.907L67.0886 23.9007L67.1044 16.8778L65.171 16.8747L65.0293 19.2871C64.8719 22.119 64.0532 24.0111 61.594 24.0048Z"
    fill="#1F2A31"
  />
<path
    d="M80.4995 21.0088C80.2161 22.9198 78.5095 24.1466 76.0912 24.1402C73.1502 24.1339 71.3964 22.3207 71.4058 19.3311C71.4121 16.3416 73.188 14.4432 76.0125 14.4495C78.7929 14.4558 80.5688 16.2848 80.5625 19.1135L80.5594 19.9618L74.3184 19.9492V20.1353C74.3153 21.239 75.0521 22.0053 76.1447 22.0085C76.9414 22.0116 77.5711 21.63 77.7821 21.0025L80.4995 21.0088ZM74.3688 18.2337L77.7254 18.24C77.6782 17.2561 77.017 16.5907 76.0597 16.5876C75.134 16.5876 74.4475 17.275 74.3688 18.2337Z"
    fill="#1F2A31"
  />
<path
    d="M84.8591 20.2206L84.8496 23.9386L81.8394 23.9323L81.8614 14.683L84.8716 14.6893L84.8622 18.2307H84.9315L87.5607 14.6956L90.9173 14.7019L87.5418 18.9308L91.1598 23.948L87.5985 23.9386L84.9283 20.2143L84.8591 20.2206Z"
    fill="#1F2A31"
  />
<path
    d="M91.3433 19.3254C91.3496 16.3011 93.2105 14.4878 96.0759 14.4942C98.9602 14.5005 100.802 16.3137 100.796 19.3443C100.79 22.4347 98.9697 24.1881 96.0539 24.1818C93.1444 24.1786 91.3339 22.4095 91.3433 19.3254ZM97.7448 19.3506C97.748 17.6855 97.0993 16.7079 96.0728 16.7048C95.0557 16.7016 94.4008 17.6761 94.3976 19.3411C94.3945 21.0314 95.0274 21.9743 96.0633 21.9775C97.0836 21.9806 97.7385 21.0377 97.7448 19.3506Z"
    fill="#1F2A31"
  />
<path
    d="M102.085 23.9797L102.107 14.7305L106.069 14.7399L108.024 20.1955H108.084L110.065 14.7494L114 14.7588L113.978 24.0081L111.204 24.0018L111.217 18.007H111.148L109.041 23.3617L107.023 23.3585L104.941 17.9944H104.882L104.869 23.9892L102.085 23.9797Z"
    fill="#1F2A31"
  />
</svg>
