<svg xmlns="http://www.w3.org/2000/svg" width="88.977" height="26.108" viewBox="0 0 88.977 26.108">
    <defs>
        <style>
            .cls-1{fill:#fff}
        </style>
    </defs>
    <g id="Сгруппировать_11119" data-name="Сгруппировать 11119" transform="translate(-724.97 -53.475)">
        <path id="Контур_4153" d="M731 91.123l-3.018 5.218-3.017-5.226H731z" class="cls-1" data-name="Контур 4153" transform="translate(0 -27.202)"/>
        <path id="Контур_4154" fill="#00a1c1" d="M764.8 53.492l-9.045 15.647-9.042-15.664h18.069z" data-name="Контур 4154" transform="translate(-15.715)"/>
        <path id="Контур_4155" fill="#f27f2c" d="M735.844 120.39l6.03-10.432L747.9 120.4h-12.044z" data-name="Контур 4155" transform="translate(-7.858 -40.819)"/>
        <path id="Контур_4156" d="M838.928 91.116l-3.128 10.465h-3.047l-1.69-6.088-.306-1.14h-.02l-.284 1.14-1.609 6.088h-3.124l-2.993-10.465h2.653s1.96 7.35 2.1 7.88h.019l.388-1.547 1.67-6.332h2.646l1.751 6.352.392 1.531h.019c.164-.551 2.063-7.88 2.063-7.88z" class="cls-1" data-name="Контур 4156" transform="translate(-70.647 -27.202)"/>
        <path id="Контур_4157" d="M886.481 89.378V78.913h2.606v10.465zm1.243-12.014a1.568 1.568 0 1 1 1.609-1.567 1.518 1.518 0 0 1-1.609 1.567" class="cls-1" data-name="Контур 4157" transform="translate(-116.455 -14.999)"/>
        <path id="Контур_4158" d="M914.109 100.836v-6.068c0-1.567-.427-2.544-1.71-2.544-1.08 0-1.69.509-2.586 1.466v7.146h-2.606V90.371h2l.244 1.324a4.523 4.523 0 0 1 3.543-1.61c2.648 0 3.726 1.67 3.726 4.155v6.6z" class="cls-1" data-name="Контур 4158" transform="translate(-131.698 -26.457)"/>
        <path id="Контур_4159" d="M1017.129 90.424v-4.18h1.041v4.18zm.5-4.8a.626.626 0 1 1 .643-.626.606.606 0 0 1-.643.626" class="cls-1" data-name="Контур 4159" transform="translate(-211.031 -22.33)"/>
        <path id="Контур_4160" d="M961.775 95v-2.415c0-.635-.089-1.025-.61-1.025-.423 0-.618.2-.951.585V95h-1.041v-2.423c0-.626-.089-1.017-.61-1.017-.423 0-.618.2-.952.585V95h-1.041v-4.18h.8l.1.537a1.633 1.633 0 0 1 1.342-.651 1.182 1.182 0 0 1 1.22.7 1.657 1.657 0 0 1 1.383-.7c1.057 0 1.407.667 1.407 1.659V95z" class="cls-1" data-name="Контур 4160" transform="translate(-167.372 -26.906)"/>
        <path id="Контур_4161" d="M983.794 95.114a1.937 1.937 0 0 1-2.123-2.131 2.063 2.063 0 0 1 2.2-2.277 1.952 1.952 0 0 1 2.114 2.163 2.047 2.047 0 0 1-2.191 2.245zm.017-3.586c-.716 0-1.049.569-1.049 1.35 0 .854.325 1.407 1.089 1.407.716 0 1.049-.545 1.049-1.325 0-.871-.316-1.433-1.089-1.433z" class="cls-1" data-name="Контур 4161" transform="translate(-185.512 -26.906)"/>
        <path id="Контур_4162" d="M1001.623 90.37a6.23 6.23 0 0 1-1.74-.276V84.2h1.041v2.34a1.752 1.752 0 0 1 1.285-.537c1.155 0 1.675.911 1.675 2.033a2.086 2.086 0 0 1-2.261 2.334zm.366-3.521a1.392 1.392 0 0 0-1.065.618v1.919a2.007 2.007 0 0 0 .773.163c.723 0 1.1-.5 1.1-1.39-.003-.741-.207-1.31-.809-1.31z" class="cls-1" data-name="Контур 4162" transform="translate(-198.672 -22.203)"/>
        <path id="Контур_4163" d="M1026.463 90.3a2.543 2.543 0 0 1-.651.09c-.578 0-1-.228-1-.984V84.2h1.041v4.936c0 .276.081.415.325.415h.285z" class="cls-1" data-name="Контур 4163" transform="translate(-216.689 -22.203)"/>
        <path id="Контур_4164" d="M1035.746 93.138h-2.765c0 .732.3 1.163 1.164 1.163a5.346 5.346 0 0 0 1.374-.179l.106.756a5.681 5.681 0 0 1-1.643.236c-1.407 0-2.074-.7-2.074-2.163a1.975 1.975 0 0 1 2.058-2.245c1.244 0 1.8.748 1.8 1.944-.004.105-.012.325-.02.488zm-1.017-.675c.025-.618-.244-1.016-.821-1.016a.946.946 0 0 0-.927 1.016z" class="cls-1" data-name="Контур 4164" transform="translate(-221.816 -26.906)"/>
    </g>
</svg>
