<svg xmlns="http://www.w3.org/2000/svg" width="36.523" height="36.523" viewBox="0 0 36.523 36.523">
    <g>
        <path fill="#f7f7f7" d="M18.261 0A18.261 18.261 0 1 1 0 18.261 18.261 18.261 0 0 1 18.261 0z" transform="translate(0 0) translate(0 0)"/>
    </g>
    <g>
        <path fill="none" stroke="#000" stroke-linecap="round" stroke-linejoin="round" stroke-width="1.5px" d="M16.219 12.583v2.128a1.419 1.419 0 0 1-1.546 1.419 14.038 14.038 0 0 1-6.121-2.178A13.833 13.833 0 0 1 4.3 9.7a14.037 14.037 0 0 1-2.178-6.15A1.419 1.419 0 0 1 3.529 2h2.128a1.419 1.419 0 0 1 1.419 1.22 9.108 9.108 0 0 0 .5 1.993 1.419 1.419 0 0 1-.319 1.5l-.9.9a11.35 11.35 0 0 0 4.256 4.256l.9-.9a1.419 1.419 0 0 1 1.5-.319 9.11 9.11 0 0 0 1.993.5 1.419 1.419 0 0 1 1.22 1.44z" transform="translate(11.602 11.597) translate(-2.112 -2)"/>
    </g>
</svg>
