<svg xmlns="http://www.w3.org/2000/svg" id="Сгруппировать_14668" width="36.523" height="36.523" viewBox="0 0 36.523 36.523">
    <defs>
        <style>
            .cls-2{fill:none;stroke:#000;stroke-linecap:round;stroke-linejoin:round;stroke-width:1.5px}
        </style>
    </defs>
    <g id="Сгруппировать_8690" transform="translate(0 0)">
        <path id="Контур_3915" fill="#f7f7f7" d="M18.261 0A18.261 18.261 0 1 1 0 18.261 18.261 18.261 0 0 1 18.261 0z"/>
    </g>
    <g id="globe" transform="translate(9.501 9.501)">
        <path id="Контур_3930" d="M10.66 19.319A8.66 8.66 0 1 0 2 10.66a8.66 8.66 0 0 0 8.66 8.659z" class="cls-2" transform="translate(-2 -2)"/>
        <path id="Контур_3931" d="M2 12h17.319" class="cls-2" transform="translate(-2 -3.34)"/>
        <path id="Контур_3932" d="M11.464 2a13.249 13.249 0 0 1 3.464 8.66 13.249 13.249 0 0 1-3.464 8.66A13.249 13.249 0 0 1 8 10.66 13.249 13.249 0 0 1 11.464 2z" class="cls-2" transform="translate(-2.804 -2)"/>
    </g>
</svg>
