<svg xmlns="http://www.w3.org/2000/svg" width="49" height="48" viewBox="0 0 49 48">
  <defs>
    <style>
      .cls-1, .cls-4 {
        fill: none;
      }

      .cls-2 {
        fill: #f68537;
        stroke-width: 0.5px;
        fill-rule: evenodd;
      }

      .cls-3 {
        stroke: none;
      }
    </style>
  </defs>
  <g id="Сгруппировать_14327" data-name="Сгруппировать 14327" transform="translate(0.25 0.311)">
    <g id="Сгруппировать_14323" data-name="Сгруппировать 14323" transform="translate(0 0)">
      <g id="Прямоугольник_6206" data-name="Прямоугольник 6206" class="cls-1" transform="translate(-0.25 -0.311)">
        <rect class="cls-3" width="49" height="48"/>
        <rect class="cls-4" x="0.5" y="0.5" width="48" height="47"/>
      </g>
    </g>
    <path id="Lock" class="cls-2" d="M8.786,9.122a8.023,8.023,0,0,1,16.045,0v3.129c.461.009.878.025,1.253.056a5.931,5.931,0,0,1,2.268.566,5.794,5.794,0,0,1,2.532,2.532,5.93,5.93,0,0,1,.566,2.268c.065.8.065,1.78.065,2.98v3.678c0,1.2,0,2.182-.065,2.98a5.93,5.93,0,0,1-.566,2.268,5.794,5.794,0,0,1-2.532,2.532,5.93,5.93,0,0,1-2.268.566c-.8.065-1.78.065-2.98.065H10.512c-1.2,0-2.182,0-2.98-.065a5.93,5.93,0,0,1-2.268-.566,5.794,5.794,0,0,1-2.532-2.532,5.93,5.93,0,0,1-.566-2.268c-.065-.8-.065-1.78-.065-2.98h0V20.654h0c0-1.2,0-2.182.065-2.98a5.93,5.93,0,0,1,.566-2.268,5.794,5.794,0,0,1,2.532-2.532,5.93,5.93,0,0,1,2.268-.566c.376-.031.792-.047,1.253-.056Zm13.371,0v3.12H11.46V9.122a5.348,5.348,0,0,1,10.7,0ZM7.75,14.973a3.344,3.344,0,0,0-1.272.284A3.12,3.12,0,0,0,5.114,16.62a3.346,3.346,0,0,0-.284,1.272c-.055.676-.056,1.548-.056,2.818v3.566c0,1.27,0,2.142.056,2.818a3.346,3.346,0,0,0,.284,1.272A3.12,3.12,0,0,0,6.478,29.73a3.344,3.344,0,0,0,1.272.284c.676.055,1.548.056,2.818.056h12.48c1.27,0,2.142,0,2.818-.056a3.345,3.345,0,0,0,1.272-.284A3.12,3.12,0,0,0,28.5,28.367a3.344,3.344,0,0,0,.284-1.272c.055-.676.056-1.548.056-2.818V20.71c0-1.27,0-2.142-.056-2.818A3.344,3.344,0,0,0,28.5,16.62a3.12,3.12,0,0,0-1.363-1.363,3.345,3.345,0,0,0-1.272-.284c-.676-.055-1.548-.056-2.818-.056H10.568C9.3,14.916,8.426,14.918,7.75,14.973Zm10.544,8.609a2.971,2.971,0,1,0-2.971,0v2.626a1.486,1.486,0,0,0,2.971,0Z" transform="translate(7.1 6.484)"/>
  </g>
</svg>
