<svg xmlns="http://www.w3.org/2000/svg" width="47" height="48" viewBox="0 0 47 48">
  <defs>
    <style>
      .cls-1 {
        fill: none;
      }

      .cls-2 {
        fill: #0077FF;
        stroke: #0077FF;
        stroke-width: 0.5px;
      }
    </style>
  </defs>
  <g id="Сгруппировать_11433" data-name="Сгруппировать 11433" transform="translate(0.109 0.311)">
    <rect id="Прямоугольник_6921" data-name="Прямоугольник 6921" class="cls-1" width="47" height="48" transform="translate(-0.109 -0.311)"/>
    <g id="Сгруппировать_8746" data-name="Сгруппировать 8746" transform="translate(6.425 10.387)">
      <g id="sim-card" transform="translate(33.186) rotate(90)">
        <path id="Контур_4133" data-name="Контур 4133" class="cls-2" d="M20.486.22A.768.768,0,0,0,19.948,0H3.824A3.827,3.827,0,0,0,0,3.824V29.365a3.827,3.827,0,0,0,3.824,3.821h18.39a3.827,3.827,0,0,0,3.824-3.824V6.01a.768.768,0,0,0-.227-.545ZM24.51,29.365a2.3,2.3,0,0,1-2.294,2.294H3.824a2.3,2.3,0,0,1-2.288-2.294V3.824A2.3,2.3,0,0,1,3.824,1.536H19.635L24.508,6.33Zm0,0"/>
        <path id="Контур_4134" data-name="Контур 4134" class="cls-2" d="M0,.768v13.78a.768.768,0,0,0,.768.768H17.181a.768.768,0,0,0,.733-.986V.768A.768.768,0,0,0,17.146,0H.768A.768.768,0,0,0,0,.768Zm1.536.768H16.39V13.785H1.536Zm0,0" transform="translate(3.899 13.651)"/>
        <path id="Контур_4135" data-name="Контур 4135" class="cls-2" d="M.768,4.168A.768.768,0,0,0,1.536,3.4V.768A.768.768,0,1,0,0,.768V3.4a.768.768,0,0,0,.768.765Zm0,0" transform="translate(6.786 6.136)"/>
        <path id="Контур_4136" data-name="Контур 4136" class="cls-2" d="M.768,4.168A.768.768,0,0,0,1.536,3.4V.768A.768.768,0,1,0,0,.768V3.4a.768.768,0,0,0,.768.765Zm0,0" transform="translate(11.948 6.136)"/>
        <path id="Контур_4137" data-name="Контур 4137" class="cls-2" d="M.768,4.168A.768.768,0,0,0,1.536,3.4V.768A.768.768,0,1,0,0,.768V3.4a.768.768,0,0,0,.768.765Zm0,0" transform="translate(17.111 6.136)"/>
      </g>
    </g>
  </g>
</svg>
