<svg xmlns="http://www.w3.org/2000/svg" width="24" height="24" viewBox="0 0 24 24">
    <defs>
        <style>
            .cls-1{fill:none;stroke:#fd7d3b;stroke-linecap:round;stroke-linejoin:round;stroke-width:2px}
        </style>
    </defs>
    <g id="Сгруппировать_17121" transform="translate(0.033)">
        <g id="Сгруппировать_17005" transform="translate(5.062 5)">
            <g id="calendar">
                <path id="Контур_3933" d="M14.972 4H4.5A1.5 1.5 0 0 0 3 5.5v10.472a1.5 1.5 0 0 0 1.5 1.5h10.472a1.5 1.5 0 0 0 1.5-1.5V5.5a1.5 1.5 0 0 0-1.5-1.5z" class="cls-1" transform="translate(-3 -2.504)"/>
                <path id="Контур_3934" d="M16 2v2.993" class="cls-1" transform="translate(-6.273 -2)"/>
                <path id="Контур_3935" d="M8 2v2.993" class="cls-1" transform="translate(-4.259 -2)"/>
                <path id="Контур_3936" d="M3 10h13.468" class="cls-1" transform="translate(-3 -4.014)"/>
            </g>
            <path id="Прямоугольник_5761" fill="#fd7d3b" d="M0 0H13V4H0z" transform="translate(0.468 1.532)"/>
        </g>
        <path id="Прямоугольник_7831" fill="none" d="M0 0H24V24H0z" transform="translate(-0.033)"/>
    </g>
</svg>
