<svg xmlns="http://www.w3.org/2000/svg" width="12" height="12" viewBox="0 0 12 12">
    <path fill="#d4dce6" d="M6 0a6 6 0 1 1-6 6 6 6 0 0 1 6-6z"/>
    <path fill="#fff" d="M9.777 8.786a.7.7 0 0 1 .7-.673v1.359a.976.976 0 0 1-.119-.034c-.386-.127-.581-.347-.581-.652zm2.116 2.641a.748.748 0 0 1-.766.728v-1.46a.831.831 0 0 0 .085.021c.474.131.681.364.681.711zm-.758 2.18v-.538c1.16-.11 1.9-.749 1.9-1.756 0-1.024-.69-1.456-1.541-1.638l-.36-.076V8.122a.8.8 0 0 1 .711.749h1.083a1.778 1.778 0 0 0-1.778-1.663v-.55h-.686V7.2c-1.03.1-1.834.659-1.834 1.675a1.658 1.658 0 0 0 1.481 1.625l.364.08v1.574a.862.862 0 0 1-.846-.787H8.52c.008.783.533 1.608 1.934 1.71v.529z" transform="translate(-4.776 -4.121)"/>
</svg>
