<svg xmlns="http://www.w3.org/2000/svg" width="52" height="52" viewBox="0 0 52 52">
    <defs>
        <style>
            .cls-1{fill:none}.cls-4,.cls-6{fill:#fff}.cls-4,.cls-7{stroke:#fff;stroke-width:.5px}.cls-7{fill:#ebebeb;stroke:#ebebeb}
        </style>
    </defs>
    <g id="Сгруппировать_17245" transform="translate(-481 -490)">
        <g id="Сгруппировать_17240" transform="translate(-7 355)">
            <path id="Прямоугольник_7944" d="M0 0H52V52H0z" class="cls-1" transform="translate(488 135)"/>
            <g id="Сгруппировать_17180" transform="translate(-3 -14)">
                <circle id="Эллипс_719" cx="26" cy="26" r="26" fill="#e2e8f0" transform="translate(491 149)"/>
            </g>
        </g>
        <g id="Сгруппировать_17234" transform="translate(496.146 505)">
            <path id="Прямоугольник_6921" d="M0 0H24V24H0z" class="cls-1" transform="translate(-1.146 -1)"/>
            <g id="Сгруппировать_11777" transform="translate(-18.488 -396.621)">
                <g id="sim-card" transform="translate(41.341 398) rotate(90)">
                    <path id="Контур_4133" fill="#fff" stroke="#fff" stroke-linejoin="round" d="M14.408.155A.538.538 0 0 0 14.03 0H2.689A2.692 2.692 0 0 0 0 2.689v17.963a2.692 2.692 0 0 0 2.689 2.689h12.935a2.692 2.692 0 0 0 2.689-2.689V4.227a.538.538 0 0 0-.16-.383zm2.829 20.5a1.615 1.615 0 0 1-1.613 1.613H2.689a1.615 1.615 0 0 1-1.613-1.613V2.689a1.615 1.615 0 0 1 1.613-1.613H13.81l3.427 3.377zm0 0" transform="translate(0 0)"/>
                    <path id="Контур_4134" d="M0 .538v9.694a.538.538 0 0 0 .538.538h11.545a.538.538 0 0 0 .515-.694V.538A.538.538 0 0 0 12.061 0H.538A.538.538 0 0 0 0 .538zm1.076.538h10.447v8.618H1.076zm0 0" class="cls-4" transform="translate(2.743 9.6)"/>
                    <path id="Контур_26949" d="M0 .6v10.808a.6.6 0 0 0 .591.6h12.7a.589.589 0 0 0 .475-.242.607.607 0 0 0 .091-.531V.6a.6.6 0 0 0-.591-.6H.591A.6.6 0 0 0 0 .6zm1.183.6h11.488v9.609H1.183zm0 0" class="cls-4" transform="translate(1.743 9.363)"/>
                    <g id="Контур_23816" fill="#fff" stroke="none">
                        <path d="M15.055 8.631H.5V.5h11.904l2.65 2.66V8.63z" transform="translate(1.401 0.922)"/>
                        <path d="M1 1v7.131h13.555V3.366L12.196 1H1M0 0h12.611l2.944 2.953V9.13H0V0z" transform="translate(1.401 0.922)"/>
                    </g>
                    <path id="Прямоугольник_6998" d="M0 0H1V13H0z" class="cls-6" transform="translate(1.621 9)"/>
                    <path id="Прямоугольник_6999" d="M0 0H14V2H0z" class="cls-6" transform="translate(1.621 21)"/>
                    <path id="Прямоугольник_7000" d="M0 0H5V13H0z" class="cls-6" transform="translate(13.621 9)"/>
                    <path id="Контур_4135" d="M.538 2.931a.538.538 0 0 0 .538-.538V.538A.538.538 0 0 0 0 .538v1.855a.538.538 0 0 0 .538.538zm0 0" class="cls-7" transform="translate(4.773 4.316)"/>
                    <path id="Контур_4136" d="M.538 2.931a.538.538 0 0 0 .538-.538V.538A.538.538 0 1 0 0 .538v1.855a.538.538 0 0 0 .538.538zm0 0" class="cls-7" transform="translate(8.403 4.316)"/>
                    <path id="Контур_4137" d="M.538 2.931a.538.538 0 0 0 .538-.538V.538A.538.538 0 0 0 0 .538v1.855a.538.538 0 0 0 .538.538zm0 0" class="cls-7" transform="translate(12.034 4.316)"/>
                </g>
            </g>
        </g>
    </g>
</svg>
