<svg xmlns="http://www.w3.org/2000/svg" id="endless" width="30.545" height="13.681" viewBox="0 0 30.545 13.681">
    <g id="Сгруппировать_2958" data-name="Сгруппировать 2958">
        <g id="Контур_3844" fill="#333f48" stroke="none" data-name="Контур 3844">
            <path d="M6.873 154.864c-3.707 0-6.723-3.001-6.723-6.69 0-3.686 3.01-6.685 6.71-6.685h.012c1.797 0 3.486.697 4.756 1.961l.003.003.004.003 1.483 1.313-1.696 1.499-1.341-1.188c-.893-.884-2.002-1.352-3.208-1.352-2.462 0-4.465 1.995-4.465 4.446 0 2.45 2.003 4.445 4.465 4.445 1.189 0 2.308-.46 3.15-1.294l3.427-3.04.12-.105-.013-.012 1.702-1.5.007.006.106-.093 3.595-3.182.004-.003.003-.003c1.213-1.214 2.926-1.91 4.698-1.91 3.707 0 6.723 3.001 6.723 6.69 0 1.786-.7 3.466-1.971 4.73-1.271 1.265-2.961 1.961-4.758 1.961-1.796 0-3.483-.694-4.75-1.954l-.003-.003-.003-.003-1.483-1.313 1.695-1.505 1.342 1.188c.895.88 2.004 1.345 3.208 1.345 2.462 0 4.465-1.994 4.465-4.445 0-2.451-2.003-4.446-4.465-4.446-1.191 0-2.31.462-3.15 1.301l-3.427 3.032-.12.106.007.006-1.697 1.506-.006-.006-.106.094-3.596 3.188-.003.003-.003.003c-1.222 1.21-2.935 1.903-4.698 1.903z" transform="translate(0 -141.333)"/>
            <path fill="#fff" d="M23.672 141.633c-1.733 0-3.406.68-4.592 1.866l-.007.006-.006.006-3.596 3.182-.211.187-.007-.007-1.477 1.302.012.012-.238.211-3.424 3.036c-.87.861-2.026 1.335-3.253 1.335-2.545 0-4.615-2.061-4.615-4.595s2.07-4.596 4.615-4.596c1.245 0 2.39.482 3.31 1.392l1.24 1.098 1.468-1.299-1.356-1.2-.006-.006-.006-.006c-1.243-1.237-2.894-1.918-4.651-1.918H6.86c-3.618 0-6.561 2.932-6.561 6.535 0 3.606 2.948 6.54 6.573 6.54 1.724 0 3.398-.678 4.593-1.86l.006-.006.006-.005 3.595-3.188.212-.188.006.006 1.473-1.306-.007-.007.238-.21 3.423-3.03c.869-.865 2.024-1.342 3.254-1.342 2.545 0 4.615 2.062 4.615 4.596 0 2.534-2.07 4.595-4.615 4.595-1.243 0-2.388-.479-3.31-1.385l-1.24-1.098-1.47 1.305 1.357 1.2.007.006.006.007c1.238 1.232 2.888 1.91 4.644 1.91 3.627 0 6.579-2.934 6.579-6.54 0-3.607-2.949-6.541-6.573-6.541m0-.3c3.793 0 6.873 3.067 6.873 6.84 0 3.774-3.08 6.841-6.88 6.841-1.832 0-3.556-.706-4.855-1.998l-1.61-1.425 1.922-1.706 1.445 1.28c.872.859 1.953 1.304 3.105 1.304 2.38 0 4.315-1.928 4.315-4.295s-1.935-4.296-4.315-4.296c-1.152 0-2.233.446-3.048 1.26l-3.43 3.036.006.006-1.921 1.706-.007-.007-3.595 3.188c-1.247 1.235-2.972 1.947-4.804 1.947-3.793 0-6.873-3.067-6.873-6.84 0-3.77 3.074-6.835 6.86-6.835h.012c1.84 0 3.564.713 4.862 2.005l1.61 1.425-1.922 1.7-1.444-1.28c-.872-.865-1.954-1.31-3.105-1.31-2.38 0-4.315 1.928-4.315 4.295s1.935 4.295 4.315 4.295c1.151 0 2.233-.445 3.048-1.254l3.43-3.041-.013-.013 1.928-1.7.006.007 3.596-3.181c1.24-1.241 2.971-1.954 4.804-1.954z" transform="translate(0 -141.333)"/>
        </g>
    </g>
</svg>
