<svg xmlns="http://www.w3.org/2000/svg" width="24" height="24" viewBox="0 0 24 24">
    <g fill="none">
        <path d="M0 0h24v24H0z" transform="translate(-307 -309) translate(307 309)"/>
        <path stroke="#000" stroke-linecap="round" stroke-linejoin="round" stroke-width="1.5px" d="M3 9a14.835 14.835 0 0 0 2.153 2.724M19.347 9a14.83 14.83 0 0 1-2.153 2.724m0 0l2.153 2.362m-2.153-2.362a9.578 9.578 0 0 1-3.75 2.362m-8.29-2.362L3 14.087m2.153-2.362A9.579 9.579 0 0 0 8.9 14.087m4.54 0l.908 3.086m-.908-3.086a7.3 7.3 0 0 1-4.54 0m0 0l-.908 3.086" transform="translate(-307 -309) translate(307.5 308.327)"/>
    </g>
</svg>
