<svg xmlns="http://www.w3.org/2000/svg" width="28" height="28" viewBox="0 0 28 28">
    <g fill="none">
        <path d="M0 0H28V28H0z" transform="translate(-316 -168) translate(316 168)"/>
        <g stroke="#000" stroke-width="1.5px" transform="translate(-316 -168) translate(18.5 -108.5)">
            <circle cx="4" cy="4" r="4" transform="translate(307.5 291)"/>
            <path stroke-linecap="round" stroke-linejoin="round" d="M3 18a16.336 16.336 0 0 1 2.371-3M21 18a16.33 16.33 0 0 0-2.371-3m0 0L21 12.4M18.629 15a10.547 10.547 0 0 0-4.129-2.6M5.371 15L3 12.4M5.371 15A10.548 10.548 0 0 1 9.5 12.4m5 0l1-3.4m-1 3.4a8.039 8.039 0 0 0-5 0m0 0L8.5 9" transform="translate(299.5 272.5)"/>
        </g>
    </g>
</svg>
