<svg xmlns="http://www.w3.org/2000/svg" width="24" height="24" viewBox="0 0 24 24">
    <defs>
        <style>
            .cls-1{fill:none}
        </style>
    </defs>
    <g id="Сгруппировать_14262" transform="translate(0 0.001)">
        <path id="Прямоугольник_6204" d="M0 0H24V24H0z" class="cls-1" transform="translate(0 -0.001)"/>
        <g id="home" transform="translate(5.105 4.598)">
            <path id="Вычитание_1" fill="#fd7d3b" stroke="#fd7d3b" stroke-linecap="round" stroke-linejoin="round" stroke-width="1.1px" d="M3.9 14.326H1.433a1.419 1.419 0 0 1-1.013-.42A1.439 1.439 0 0 1 0 12.893V5.014L6.447 0l6.447 5.014v7.879a1.442 1.442 0 0 1-.419 1.012 1.424 1.424 0 0 1-1.013.419H9.019v-7H3.9v7z" transform="translate(0 0)"/>
            <path id="Контур_3879" d="M9 19.163V12h4.3v7.163" class="cls-1" transform="translate(-4.702 -4.837)"/>
        </g>
    </g>
</svg>
