<svg xmlns="http://www.w3.org/2000/svg" width="24" height="24" viewBox="0 0 24 24">
  <defs>
    <style>
      .cls-1 {
        fill: none;
      }

      .cls-2 {
        fill: rgba(255,255,255,0);
        stroke: #000;
        stroke-linecap: round;
        stroke-linejoin: round;
        stroke-width: 1.3px;
      }
    </style>
  </defs>
  <g id="Сгруппировать_11220" data-name="Сгруппировать 11220" transform="translate(2.146 1.999)">
    <rect id="Прямоугольник_6204" data-name="Прямоугольник 6204" class="cls-1" width="24" height="24" transform="translate(-2.146 -1.999)"/>
    <g id="home" transform="translate(2.958 2.599)">
      <path id="Вычитание_1" data-name="Вычитание 1" class="cls-2" d="M3.9,14.326H1.433A1.419,1.419,0,0,1,.42,13.906,1.439,1.439,0,0,1,0,12.893V5.014L6.447,0l6.447,5.014v7.879a1.442,1.442,0,0,1-.419,1.012,1.424,1.424,0,0,1-1.013.419H9.019v-7H3.9v7Z" transform="translate(0 0)"/>
      <path id="Контур_3879" data-name="Контур 3879" class="cls-1" d="M9,19.163V12h4.3v7.163" transform="translate(-4.702 -4.837)"/>
    </g>
  </g>
</svg>
