<svg
  width="40"
  height="41"
  viewBox="0 0 40 41"
  fill="none"
  xmlns="http://www.w3.org/2000/svg"
><rect y=".25" width="40" height="40" rx="20" fill="#6DB" /><path
    d="M25.314 20.977c-.156 0-.32-.05-.475-.085a6.69 6.69 0 0 1-.929-.277 1.418 1.418 0 0 0-1.759.71l-.155.319a8.634 8.634 0 0 1-1.887-1.419 8.636 8.636 0 0 1-1.418-1.886l.298-.198a1.419 1.419 0 0 0 .709-1.759 7.311 7.311 0 0 1-.276-.929 5.22 5.22 0 0 1-.086-.482 2.127 2.127 0 0 0-2.127-1.766h-2.127a2.127 2.127 0 0 0-2.128 2.418A13.473 13.473 0 0 0 24.67 27.295h.27a2.127 2.127 0 0 0 1.943-1.26c.122-.276.185-.573.183-.874v-2.128a2.127 2.127 0 0 0-1.751-2.056Zm.355 4.255a.71.71 0 0 1-.514.681c-.1.03-.205.04-.309.028a12.055 12.055 0 0 1-10.43-10.48.774.774 0 0 1 .176-.582.71.71 0 0 1 .532-.241h2.128a.709.709 0 0 1 .709.56 7.878 7.878 0 0 0 .433 1.674l-.994.46a.71.71 0 0 0-.347.943 10.274 10.274 0 0 0 4.964 4.964.708.708 0 0 0 .539 0 .708.708 0 0 0 .404-.369l.44-.992c.366.13.74.24 1.12.326.189.042.38.078.574.106a.71.71 0 0 1 .56.71l.015 2.212Z"
    fill="#fff"
  /></svg>
