<svg xmlns="http://www.w3.org/2000/svg" id="Page-1" width="16.89" height="16.89" viewBox="0 0 16.89 16.89">
    <g id="Desktop-Copy-37">
        <g id="Group-2163">
            <g id="printer-line">
                <path id="Path_3455" fill="none" fill-rule="evenodd" d="M0 0h16.89v16.89H0z"/>
                <path id="Path_3456" fill="#333f48" d="M5.092 14.958H2.815a.759.759 0 0 1-.759-.759V6.61a.759.759 0 0 1 .759-.759h2.277V2.815a.759.759 0 0 1 .759-.759h7.589a.759.759 0 0 1 .759.759v3.036h2.277a.759.759 0 0 1 .759.759v7.59a.759.759 0 0 1-.758.759H14.2v1.518a.759.759 0 0 1-.759.759h-7.59a.759.759 0 0 1-.759-.759zm0-1.518v-.759a.759.759 0 0 1 .759-.759h7.59a.759.759 0 0 1 .759.759v.759h1.518V7.369H3.575v6.071zM6.61 3.575v2.276h6.072V3.575zm0 9.866v2.277h6.072V13.44zM4.333 8.128H6.61v1.518H4.333z" transform="translate(-1.2 -1.2)"/>
            </g>
        </g>
    </g>
</svg>
