<svg xmlns="http://www.w3.org/2000/svg" width="20" height="20" viewBox="0 0 20 20">
    <defs>
        <style>
            .cls-2,.cls-3{fill:none;stroke:#000;stroke-linecap:round;stroke-linejoin:round}.cls-2{stroke-width:1.3px}.cls-3{stroke-width:1.2px}
        </style>
    </defs>
    <g id="Сгруппировать_11222" data-name="Сгруппировать 11222" transform="translate(.146 -.001)">
        <path id="Прямоугольник_6206" fill="none" d="M0 0H20V20H0z" data-name="Прямоугольник 6206" transform="translate(-.146 .001)"/>
        <g id="server" transform="translate(3.036 4.119)">
            <path id="Контур_4149" d="M13.774 2H3.308A1.283 1.283 0 0 0 2 3.257v2.514a1.283 1.283 0 0 0 1.308 1.257h10.466a1.283 1.283 0 0 0 1.308-1.257V3.257A1.283 1.283 0 0 0 13.774 2z" class="cls-2" data-name="Контур 4149" transform="translate(-2 -2)"/>
            <path id="Контур_4150" d="M13.774 14H3.308A1.283 1.283 0 0 0 2 15.257v2.513a1.283 1.283 0 0 0 1.308 1.257h10.466a1.283 1.283 0 0 0 1.308-1.257v-2.513A1.283 1.283 0 0 0 13.774 14z" class="cls-2" data-name="Контур 4150" transform="translate(-2 -6.363)"/>
            <path id="Контур_4151" d="M6 6h3.045" class="cls-3" data-name="Контур 4151" transform="translate(-3.444 -3.917)"/>
            <path id="Контур_4152" d="M6 18h3.045" class="cls-3" data-name="Контур 4152" transform="translate(-3.444 -8.016)"/>
        </g>
    </g>
</svg>
