<svg xmlns="http://www.w3.org/2000/svg" width="24" height="24" viewBox="0 0 24 24">
    <g id="Сгруппировать_8661" data-name="Сгруппировать 8661" transform="translate(1.272 1.49)">
        <path id="Прямоугольник_5663" fill="none" d="M0 0H24V24H0z" data-name="Прямоугольник 5663" transform="translate(-1.272 -1.49)"/>
        <g id="setting" transform="translate(3.473 3.406)">
            <path id="Контур_3839" fill="#66ddbb" stroke="#66ddbb" stroke-width="1.5px" d="M6.9 2.318a1.63 1.63 0 0 1 3.2 0 1.63 1.63 0 0 0 2.36 1.133 1.63 1.63 0 0 1 2 2.5 1.63 1.63 0 0 0 .578 2.549 1.63 1.63 0 0 1-.712 3.12 1.63 1.63 0 0 0-1.626 2.042 1.63 1.63 0 0 1-2.884 1.389 1.63 1.63 0 0 0-2.612 0 1.63 1.63 0 0 1-2.884-1.389 1.63 1.63 0 0 0-1.631-2.042 1.63 1.63 0 0 1-.711-3.12 1.63 1.63 0 0 0 .582-2.547 1.63 1.63 0 0 1 2-2.5A1.63 1.63 0 0 0 6.9 2.318z" data-name="Контур 3839" transform="translate(-1 -1)"/>
            <path id="Контур_3840" fill="#fff" d="M13.1 10.645a2.644 2.644 0 1 1-.775-1.872 2.644 2.644 0 0 1 .775 1.872z" data-name="Контур 3840" transform="translate(-2.948 -3.014)"/>
        </g>
    </g>
</svg>
