<svg xmlns="http://www.w3.org/2000/svg" width="22" height="22" viewBox="0 0 22 22">
    <defs>
        <style>
            .cls-2{stroke:#000;stroke-width:.4px}
        </style>
    </defs>
    <g id="Сгруппировать_11433" data-name="Сгруппировать 11433">
        <path id="Прямоугольник_6921" fill="none" d="M0 0H22V22H0z" data-name="Прямоугольник 6921"/>
        <g id="Сгруппировать_8746" data-name="Сгруппировать 8746" transform="translate(3 4.003)">
            <g id="sim-card" transform="rotate(90 8.306 8.307)">
                <path id="Контур_4133" d="M10.256.11A.385.385 0 0 0 9.987 0H1.914A1.916 1.916 0 0 0 0 1.914V14.7a1.916 1.916 0 0 0 1.914 1.913h9.207a1.916 1.916 0 0 0 1.914-1.913V3.009a.385.385 0 0 0-.114-.273zM12.27 14.7a1.154 1.154 0 0 1-1.148 1.148H1.914A1.154 1.154 0 0 1 .769 14.7V1.914A1.154 1.154 0 0 1 1.914.769H9.83l2.44 2.4zm0 0" class="cls-2" data-name="Контур 4133"/>
                <path id="Контур_4134" d="M0 .385v6.9a.385.385 0 0 0 .385.385H8.6a.385.385 0 0 0 .367-.494V.385A.385.385 0 0 0 8.584 0H.385A.385.385 0 0 0 0 .385zm.769.384h7.436V6.9H.769zm0 0" class="cls-2" data-name="Контур 4134" transform="translate(1.952 6.834)"/>
                <path id="Контур_4135" d="M.385 2.087A.385.385 0 0 0 .769 1.7V.385a.385.385 0 1 0-.769 0V1.7a.385.385 0 0 0 .385.383zm0 0" class="cls-2" data-name="Контур 4135" transform="translate(3.397 3.072)"/>
                <path id="Контур_4136" d="M.385 2.087A.385.385 0 0 0 .769 1.7V.385a.385.385 0 1 0-.769 0V1.7a.385.385 0 0 0 .385.383zm0 0" class="cls-2" data-name="Контур 4136" transform="translate(5.982 3.072)"/>
                <path id="Контур_4137" d="M.385 2.087A.385.385 0 0 0 .769 1.7V.385a.385.385 0 1 0-.769 0V1.7a.385.385 0 0 0 .385.383zm0 0" class="cls-2" data-name="Контур 4137" transform="translate(8.566 3.072)"/>
            </g>
        </g>
    </g>
</svg>
