<svg
  width="40"
  height="41"
  viewBox="0 0 40 41"
  fill="none"
  xmlns="http://www.w3.org/2000/svg"
><rect y=".5" width="40" height="40" rx="20" fill="#07F" /><path
    d="M20.983 27.5c-7.517 0-11.804-5.255-11.983-14h3.765c.124 6.418 2.9 9.137 5.098 9.698V13.5h3.546v5.535c2.17-.238 4.452-2.76 5.221-5.535h3.546a10.789 10.789 0 0 1-1.698 4.003 10.558 10.558 0 0 1-3.126 2.976 10.895 10.895 0 0 1 3.563 2.893A11.153 11.153 0 0 1 31 27.5h-3.903a6.94 6.94 0 0 0-2.104-3.377 6.726 6.726 0 0 0-3.584-1.626V27.5h-.426Z"
    fill="#fff"
  /></svg>
