<svg xmlns="http://www.w3.org/2000/svg" id="Сгруппировать_12243" width="28" height="28" viewBox="0 0 28 28">
    <defs>
        <style>
            .cls-2{fill:none;stroke:#25282b;stroke-linecap:round;stroke-linejoin:round;stroke-width:1.5px}
        </style>
    </defs>
    <path id="Прямоугольник_5766" fill="none" d="M0 0H28V28H0z"/>
    <g id="headphones" transform="translate(5.931 5.931)">
        <path id="Контур_4223" d="M3 16.4v-5.36a8.04 8.04 0 1 1 16.08 0v5.36" class="cls-2" transform="translate(-3 -3)"/>
        <path id="Контур_4224" d="M19.08 18.467a1.787 1.787 0 0 1-1.787 1.787H16.4a1.787 1.787 0 0 1-1.787-1.787v-2.68A1.787 1.787 0 0 1 16.4 14h2.68zm-16.08 0a1.787 1.787 0 0 0 1.787 1.787h.893a1.787 1.787 0 0 0 1.787-1.787v-2.68A1.787 1.787 0 0 0 5.68 14H3z" class="cls-2" transform="translate(-3 -4.173)"/>
    </g>
</svg>
